<?xml version="1.0" standalone="no"?><!DOCTYPE svg PUBLIC "-//W3C//DTD SVG 1.1//EN" "http://www.w3.org/Graphics/SVG/1.1/DTD/svg11.dtd"><svg t="1551079775880" class="icon" style="" viewBox="0 0 1024 1024" version="1.1" xmlns="http://www.w3.org/2000/svg" p-id="4760" xmlns:xlink="http://www.w3.org/1999/xlink" width="64" height="64"><defs><style type="text/css"></style></defs><path d="M677.4 112.9v146.3c0 19.1 15.4 34.6 34.6 34.6h144.2L677.4 112.9z" p-id="4761" fill="#7a7d82"></path><path d="M712 329.5c-38.8-0.1-70.3-31.6-70.3-70.4V112.5H229.8c-34.2 0-62 27.7-62 62v674.9c0 34.2 27.7 62 62 62h564.1c34.2 0 62-27.7 62-62v-520H712zM650.9 644h-0.7v5.9c0 1.6 0 3.2-0.5 4.9 0 1.6 0 3.2-0.5 5.4-6.5 37.6-37 68.3-68.8 68.3-31.6 0-51.6-30.6-44.6-68.3 6.5-37.6 37-68.3 68.8-68.3 1.6 0 2.7 0.5 3.8 0.5V427L414 459.7v220.8c0 5.4 0 10.8-1.1 16.2-6.5 37.6-37 68.3-68.8 68.3-31.1 0-51.6-30.6-44.6-68.3 6.5-37.6 37-68.3 68.8-68.3 1.6 0 2.7 0.5 3.8 0.5V442c0-10.2 7.5-19.4 17.8-21l236.3-40.3c5.9-1.1 12.4 0.5 17.2 4.8 4.8 4.3 7.5 9.7 7.5 16.2V644z" p-id="4762" fill="#7a7d82"></path></svg>